<svg xmlns="http://www.w3.org/2000/svg" width="25.333" height="19" viewBox="0 0 25.333 19"><defs><style>.a{fill:#eceff1;}.b{fill:#cfd8dc;}.c{fill:#f44336;}</style></defs><rect class="a" width="19" height="18" transform="translate(3.333)"/><path class="b" d="M256,155.981l9.5,7.5V148.672Z" transform="translate(-243.334 -144.482)"/><path class="c" d="M22.958,64h-.792l-9.5,7.5L3.167,64H2.375A2.376,2.376,0,0,0,0,66.375v14.25A2.376,2.376,0,0,0,2.375,83h.792V68.189l9.5,7.307,9.5-7.309V83h.792a2.376,2.376,0,0,0,2.375-2.375V66.375A2.376,2.376,0,0,0,22.958,64Z" transform="translate(0 -64)"/></svg>