<svg xmlns="http://www.w3.org/2000/svg" width="25.599" height="24" viewBox="0 0 25.599 24"><defs><style>.a{fill:#1976d2;}.b{fill:#2196f3;}.c{fill:#fafafa;}</style></defs><path class="a" d="M268,112.011H256.8a.8.8,0,0,0,0,1.6h8.868l-4.915,3.822-3.525-2.241-.858,1.35,4,2.544a.8.8,0,0,0,.92-.043l5.909-4.6V124.81H256.8a.8.8,0,0,0,0,1.6H268a.8.8,0,0,0,.8-.8v-12.8A.8.8,0,0,0,268,112.011Z" transform="translate(-243.2 -107.21)"/><path class="b" d="M14.11,16.175a.786.786,0,0,0-.658-.17L.653,18.4A.8.8,0,0,0,0,19.19v17.6a.8.8,0,0,0,.653.786l12.8,2.4a.753.753,0,0,0,.147.014.8.8,0,0,0,.8-.8V16.79A.8.8,0,0,0,14.11,16.175Z" transform="translate(0 -15.989)"/><path class="c" d="M68,185.611c-2.2,0-4-2.154-4-4.8s1.8-4.8,4-4.8,4,2.154,4,4.8S70.2,185.611,68,185.611Zm0-8c-1.323,0-2.4,1.435-2.4,3.2s1.077,3.2,2.4,3.2,2.4-1.435,2.4-3.2S69.323,177.611,68,177.611Z" transform="translate(-60.8 -168.01)"/></svg>