<svg xmlns="http://www.w3.org/2000/svg" width="90" height="23" viewBox="0 0 90 23"><g transform="translate(0 -187.6)"><path d="M354.771,221.2h-4.857a.949.949,0,0,0-.714.571l-2,12.571a.379.379,0,0,0,.429.429H350.2a.379.379,0,0,0,.429-.429l.571-3.571a.654.654,0,0,1,.714-.571h1.571q4.929,0,5.571-4.714a3.745,3.745,0,0,0-.571-3.143,5.762,5.762,0,0,0-3.714-1.143m.571,4.714c-.286,1.714-1.571,1.714-2.857,1.714h-.857l.571-3.286c0-.143.143-.286.429-.286h.286c.857,0,1.714,0,2.143.571.286.143.286.571.286,1.286" transform="translate(-285.2 -27.6)" fill="#139ad6"/><g transform="translate(27 193.6)"><path d="M158.771,221.2h-4.857a.949.949,0,0,0-.714.571l-2,12.571a.379.379,0,0,0,.429.429h2.286a.949.949,0,0,0,.714-.571l.571-3.429a.654.654,0,0,1,.714-.571h1.571q4.929,0,5.571-4.714a3.745,3.745,0,0,0-.571-3.143,5.491,5.491,0,0,0-3.714-1.143m.571,4.714c-.286,1.714-1.571,1.714-2.857,1.714h-.714l.571-3.286c0-.143.143-.286.429-.286h.286c.857,0,1.714,0,2.143.571a1.53,1.53,0,0,1,.143,1.286" transform="translate(-151.2 -221.2)" fill="#263b80"/><path d="M224.988,245.486H222.7c-.143,0-.429.143-.429.286l-.143.714-.143-.286a3.36,3.36,0,0,0-2.714-1,5.489,5.489,0,0,0-5.286,4.714,4.258,4.258,0,0,0,.857,3.571,3.6,3.6,0,0,0,3,1.143,4.566,4.566,0,0,0,3.286-1.286l-.143.714a.379.379,0,0,0,.429.429h2.143a.949.949,0,0,0,.714-.571l1.286-8c-.143-.143-.429-.429-.571-.429m-3.286,4.571a2.763,2.763,0,0,1-2.714,2.286,2.284,2.284,0,0,1-1.571-.571,3.047,3.047,0,0,1-.429-1.714,2.548,2.548,0,0,1,4.143-1.714,2.494,2.494,0,0,1,.571,1.714" transform="translate(-202.703 -240.914)" fill="#263b80"/></g><path d="M420.188,245.486H417.9c-.143,0-.429.143-.429.286l-.143.714-.143-.286a3.36,3.36,0,0,0-2.714-1,5.489,5.489,0,0,0-5.286,4.714,4.258,4.258,0,0,0,.857,3.571,3.6,3.6,0,0,0,3,1.143,4.566,4.566,0,0,0,3.286-1.286l-.143.714a.379.379,0,0,0,.429.429h2.143a.949.949,0,0,0,.714-.571l1.286-8c-.143-.143-.286-.429-.571-.429m-3.286,4.571a2.763,2.763,0,0,1-2.714,2.286,2.284,2.284,0,0,1-1.571-.571,3.046,3.046,0,0,1-.429-1.714,2.548,2.548,0,0,1,4.143-1.714,1.64,1.64,0,0,1,.571,1.714" transform="translate(-336.046 -47.314)" fill="#139ad6"/><path d="M295,246.8h-2.429a.742.742,0,0,0-.571.286l-3.143,4.857-1.429-4.571a.66.66,0,0,0-.714-.429h-2.286c-.286,0-.429.286-.429.571l2.571,7.571-2.429,3.429c-.143.286,0,.714.286.714h2.286a.742.742,0,0,0,.571-.286l7.857-11.286c.429-.429.143-.857-.143-.857" transform="translate(-233.286 -48.629)" fill="#263b80"/><path d="M477.2,222.028l-2,12.857a.379.379,0,0,0,.429.429h2a.949.949,0,0,0,.714-.571l2-12.571a.379.379,0,0,0-.429-.429h-2.286c-.143-.143-.286,0-.429.286" transform="translate(-390.343 -27.999)" fill="#139ad6"/><path d="M16.429,189.314c-1-1.143-2.857-1.714-5.429-1.714H3.857a1.226,1.226,0,0,0-1,.857L0,207.171a.654.654,0,0,0,.571.714H5l1.143-7v.286a1.226,1.226,0,0,1,1-.857H9.286c4.143,0,7.286-1.714,8.286-6.429v-.429h0a4.989,4.989,0,0,0-1.143-4.143" fill="#263b80"/><path d="M38.457,220.4h0v.429c-1,4.857-4.143,6.429-8.286,6.429H28.029a1.226,1.226,0,0,0-1,.857L25.6,236.829a.523.523,0,0,0,.571.571h3.714a.8.8,0,0,0,.857-.714v-.143l.714-4.429v-.286a.8.8,0,0,1,.857-.714h.571c3.571,0,6.429-1.429,7.143-5.714a5.252,5.252,0,0,0-.714-4.286,1.463,1.463,0,0,0-.857-.714" transform="translate(-21.029 -26.943)" fill="#139ad6"/><path d="M44.686,216.029c-.143,0-.286-.143-.429-.143a.525.525,0,0,1-.429-.143,7.547,7.547,0,0,0-1.857-.143H36.4a.525.525,0,0,0-.429.143.786.786,0,0,0-.429.714L34.4,223.886v.286a1.226,1.226,0,0,1,1-.857h2.143c4.143,0,7.286-1.714,8.286-6.429a.525.525,0,0,1,.143-.429c-.286-.143-.429-.286-.714-.286-.429-.143-.429-.143-.571-.143" transform="translate(-28.257 -23)" fill="#232c65"/></g></svg>