<svg xmlns="http://www.w3.org/2000/svg" width="31.45" height="21.689" viewBox="0 0 31.45 21.689"><defs><style>.a{fill:#306fc5;}.b{fill:#202121;opacity:0.15;}.c{fill:#fff;}</style></defs><path class="a" d="M31.45,99.281a1.859,1.859,0,0,1-1.859,1.859H1.859A1.859,1.859,0,0,1,0,99.281V81.31a1.859,1.859,0,0,1,1.859-1.859H29.591A1.859,1.859,0,0,1,31.45,81.31V99.281Z" transform="translate(0 -79.451)"/><path class="b" d="M1.286,99.281V81.31A1.835,1.835,0,0,1,3.1,79.451H1.809A1.835,1.835,0,0,0,0,81.31V99.281a1.835,1.835,0,0,0,1.809,1.859H3.1A1.835,1.835,0,0,1,1.286,99.281Z" transform="translate(0 -79.451)"/><g transform="translate(2.197 6.502)"><path class="c" d="M74.59,202.442H75.5l-.457-1.164Z" transform="translate(-72.327 -200.197)"/><path class="c" d="M155.946,286.107v.541h1.538v.582h-1.538v.624h1.7l.79-.873-.748-.873Z" transform="translate(-148.567 -279.954)"/><path class="c" d="M349.052,201.278l-.5,1.164h.956Z" transform="translate(-329.292 -200.197)"/><path class="c" d="M213.349,283.611v-2.37l-1.081,1.164Z" transform="translate(-201.424 -275.379)"/><path class="c" d="M243.5,286.481a.42.42,0,0,0-.458-.374h-.873v.748h.915C243.331,286.855,243.5,286.731,243.5,286.481Z" transform="translate(-229.471 -279.954)"/><path class="c" d="M294.785,287.429a.324.324,0,0,0,.125-.291.231.231,0,0,0-.125-.291.808.808,0,0,0-.332-.042h-.832v.665h.832A.809.809,0,0,0,294.785,287.429Z" transform="translate(-277.746 -280.61)"/><path class="c" d="M60.031,183.2v.5l-.258-.5H57.752v.5l-.258-.5H54.741a2.694,2.694,0,0,0-1.2.249V183.2H51.6v.249a1.269,1.269,0,0,0-.817-.249H43.862l-.473,1.039-.473-1.039H40.723v.5l-.215-.5H38.615l-.86,1.954-.989,2.12-.018.042h2.239l.016-.042.258-.623h.559l.258.665h2.494v-.5l.215.5h1.247l.215-.5v.5h5.978v-1.081h.086c.086,0,.086,0,.086.125v.915h3.1v-.249a2.646,2.646,0,0,0,1.161.249h1.29l.258-.665h.6l.258.665h2.494v-.623l.387.623h2.021V183.2H60.031ZM45.453,186.69h-.688V184.4l-.043.1h0l-1,2.192h-.634L42.056,184.4v2.287H40.593l-.3-.624H38.83l-.3.624h-.756l1.272-2.91H40.12l1.2,2.785V183.78h1.139l.02.042h0l.543,1.142.39.855.014-.043.86-2h1.161v2.91ZM48.42,184.4H46.743v.54h1.634v.582H46.743v.582H48.42v.623H46.012V183.78H48.42v.624Zm3.067,1.072,0,0a.48.48,0,0,1,.042.049.781.781,0,0,1,.152.487v.012s0,0,0,.007,0,0,0,0c0,.023,0,.046,0,.072v.582h-.645v-.333a.962.962,0,0,0-.129-.582.393.393,0,0,0-.127-.084.886.886,0,0,0-.389-.041h-.774v1.039h-.731v-2.91h1.634a1.7,1.7,0,0,1,.86.125.7.7,0,0,1,.343.646.827.827,0,0,1-.515.767A.582.582,0,0,1,51.487,185.476Zm1.448,1.215H52.2v-2.91h.731Zm8.386,0h-.946L59,184.487v1.829l0,0v.38h-.726v0h-.731l-.258-.624H55.773l-.258.665H54.7a1.535,1.535,0,0,1-1.032-.332,1.432,1.432,0,0,1-.387-1.122,1.667,1.667,0,0,1,.387-1.164,1.384,1.384,0,0,1,1.075-.333h.688v.624h-.688a.811.811,0,0,0-.559.166.956.956,0,0,0-.215.665.885.885,0,0,0,.215.707.7.7,0,0,0,.516.167H55l.989-2.286h1.075l1.2,2.785v-2.785h1.075l1.247,2.037v-2.037h.731v2.868h0Z" transform="translate(-36.748 -183.198)"/><path class="c" d="M246.154,203.953a.223.223,0,0,0,.032-.045.449.449,0,0,0,.058-.314.233.233,0,0,0-.006-.038s0-.006,0-.01h0a.233.233,0,0,0-.126-.142.814.814,0,0,0-.333-.041h-.832v.665h.832a.81.81,0,0,0,.333-.042.158.158,0,0,0,.034-.025h0Z" transform="translate(-232.078 -202.158)"/><path class="c" d="M154.107,267.338a1.593,1.593,0,0,0-.208-.79v-1.871h0v-.125h-2a1.183,1.183,0,0,0-.574.249v-.249H149.41a1.32,1.32,0,0,0-.832.249v-.249h-3.409v.249a1.608,1.608,0,0,0-.915-.249H142.01v.249a1.579,1.579,0,0,0-.956-.249h-2.494l-.582.624-.54-.624H133.7v4.2h3.658l.6-.6.521.6H140.8v-.956h.208a2.526,2.526,0,0,0,.956-.125v1.123h1.871v-1.081h.083c.125,0,.125,0,.125.125v.956H149.7a1.63,1.63,0,0,0,.956-.25v.25h1.788a1.867,1.867,0,0,0,1-.208,1.4,1.4,0,0,0,.66-1.121c0-.014,0-.029.005-.043l0,0C154.106,267.391,154.107,267.365,154.107,267.338Zm-13.1-.249h-.832v1.081h-1.366l-.8-.915,0,0-.039-.045-.915.956H134.4v-2.91h2.7l.738.809.155.169.021-.022.873-.956h2.2a1.079,1.079,0,0,1,1.088.541,1.175,1.175,0,0,1,.035.291C142.217,266.922,141.635,267.088,141.012,267.088Zm4.157-.042a.944.944,0,0,1,.125.541v.582h-.707v-.374a.928.928,0,0,0-.125-.582c-.083-.124-.249-.124-.5-.124h-.748v1.081h-.707v-2.952h1.58a1.677,1.677,0,0,1,.832.125.736.736,0,0,1,.374.665.828.828,0,0,1-.5.79A.708.708,0,0,1,145.169,267.047Zm2.869-1.206h-1.622v.54H148v.582h-1.58v.582h1.622v.624H145.71v-2.952h2.328Zm1.746,2.328h-1.33v-.624h1.33a.351.351,0,0,0,.291-.083.3.3,0,0,0,0-.416.353.353,0,0,0-.25-.083c-.665-.042-1.455,0-1.455-.915,0-.416.249-.873,1-.873h1.372v.707h-1.289a.617.617,0,0,0-.291.042c-.083.042-.083.125-.083.208,0,.125.083.166.166.208a.527.527,0,0,0,.249.042h.374a1.058,1.058,0,0,1,.79.249.861.861,0,0,1,.208.624C150.865,267.878,150.49,268.169,149.784,268.169Zm3.575-.291a1.211,1.211,0,0,1-.873.291h-1.33v-.624h1.33a.351.351,0,0,0,.291-.083.3.3,0,0,0,0-.416.351.351,0,0,0-.249-.083c-.665-.042-1.455,0-1.455-.914a.85.85,0,0,1,.784-.858,1.553,1.553,0,0,1,.214-.015h1.372v.707h-1.289a.615.615,0,0,0-.291.042.317.317,0,0,0-.083.208c0,.125.042.166.167.208a.526.526,0,0,0,.249.042h.374a1.3,1.3,0,0,1,.445.067.9.9,0,0,1,.582.657.933.933,0,0,1,.013.149A.846.846,0,0,1,153.359,267.878Z" transform="translate(-127.06 -259.688)"/></g></svg>