<svg xmlns="http://www.w3.org/2000/svg" width="30.938" height="21.336" viewBox="0 0 30.938 21.336"><defs><style>.a{fill:#e7e8e3;}.b{fill:#34495e;}.c{fill:#fff;}.d{fill:#202121;opacity:0.15;}.e{fill:#ea001b;}.f{fill:#f79f1a;}.g{fill:#ff5f01;}</style></defs><path class="a" d="M30.938,98.958a1.829,1.829,0,0,1-1.829,1.829H1.829A1.829,1.829,0,0,1,0,98.958V81.28a1.829,1.829,0,0,1,1.829-1.829h27.28a1.829,1.829,0,0,1,1.829,1.829V98.958Z" transform="translate(0 -79.451)"/><rect class="b" width="30.938" height="4.226" transform="translate(0 4.181)"/><rect class="c" width="30.938" height="2.615" transform="translate(0 8.538)"/><path class="d" d="M1.263,98.958V81.28a1.8,1.8,0,0,1,1.776-1.829H1.776A1.8,1.8,0,0,0,0,81.28V98.958a1.8,1.8,0,0,0,1.776,1.829H3.039A1.8,1.8,0,0,1,1.263,98.958Z" transform="translate(0 -79.451)"/><path class="e" d="M318.253,303.138a2.8,2.8,0,0,1,1.041-2.183,2.809,2.809,0,1,0,0,4.365A2.8,2.8,0,0,1,318.253,303.138Z" transform="translate(-295.603 -286.753)"/><path class="f" d="M394.466,300.329a2.8,2.8,0,0,0-1.768.626,2.809,2.809,0,0,1,0,4.365,2.809,2.809,0,1,0,1.768-4.992Z" transform="translate(-368.762 -286.753)"/><path class="g" d="M377.038,313.181A1.34,1.34,0,1,0,376,315.363,2.8,2.8,0,0,0,377.038,313.181Z" transform="translate(-352.251 -296.796)"/><g transform="translate(2.764 13.911)"><path class="c" d="M53.719,307.007h-6.14a.49.49,0,1,1,0-.98h6.14a.49.49,0,1,1,0,.98Z" transform="translate(-47.089 -306.027)"/><path class="c" d="M53.719,341.706h-6.14a.49.49,0,0,1,0-.98h6.14a.49.49,0,0,1,0,.98Z" transform="translate(-47.089 -338.69)"/><path class="c" d="M53.719,376.4h-6.14a.49.49,0,0,1,0-.98h6.14a.49.49,0,0,1,0,.98Z" transform="translate(-47.089 -371.352)"/></g></svg>