<svg xmlns="http://www.w3.org/2000/svg" width="30" height="21.689" viewBox="0 0 30 21.689"><defs><style>.a{fill:#92dbef;}.b{fill:#202121;opacity:0.15;}.c{fill:#263b80;}.d{fill:#232c65;}.e{fill:#139ad6;}</style></defs><path class="a" d="M30,99.281a1.818,1.818,0,0,1-1.773,1.859H1.773A1.818,1.818,0,0,1,0,99.281V81.31a1.818,1.818,0,0,1,1.773-1.859H28.227A1.818,1.818,0,0,1,30,81.31V99.281Z" transform="translate(0 -79.451)"/><path class="b" d="M1.3,99.281V81.31a1.844,1.844,0,0,1,1.829-1.859h-1.3A1.844,1.844,0,0,0,0,81.31V99.281a1.844,1.844,0,0,0,1.829,1.859h1.3A1.844,1.844,0,0,1,1.3,99.281Z" transform="translate(0 -79.451)"/><path class="c" d="M159.248,130.4c-.678-.775-1.937-1.162-3.68-1.162h-4.843a.831.831,0,0,0-.678.581l-1.937,12.687a.443.443,0,0,0,.387.484h3l.775-4.745v.194a.83.83,0,0,1,.678-.581h1.453c2.808,0,4.939-1.162,5.617-4.359v-.291h0a3.383,3.383,0,0,0-.774-2.808" transform="translate(-139.602 -126.229)"/><path class="d" d="M224.776,186.183v-.291c0-.01,0-.019,0-.028a2.743,2.743,0,0,0-.457-.257,4.288,4.288,0,0,0-1.467-.3h-4.375a.7.7,0,0,0-.679.6l-.772,5.017v.194a.83.83,0,0,1,.678-.581h1.453C221.968,190.541,224.1,189.379,224.776,186.183Z" transform="translate(-204.444 -178.768)"/><path class="e" d="M210.211,195.711a2.532,2.532,0,0,0-.95-1.229c0,.01,0,.018,0,.028v.29c-.678,3.2-2.808,4.359-5.617,4.359H202.19a.83.83,0,0,0-.678.581v-.075c-.011.025-.021.05-.03.075l-.547,3.338-.2,1.213h0l-.222,1.356a.354.354,0,0,0,.387.387h2.414a.682.682,0,0,0,.685-.581l.02-.126h0l.464-2.875a.733.733,0,0,1,.722-.678h.247c2.421,0,4.358-.968,4.842-3.874A4.565,4.565,0,0,0,210.211,195.711Z" transform="translate(-188.937 -187.178)"/></svg>