<svg xmlns="http://www.w3.org/2000/svg" width="30" height="20.689" viewBox="0 0 30 20.689"><defs><style>.a{fill:#fff;}.b{fill:#f79f1a;}.c{fill:#059bbf;}.d{fill:#202121;opacity:0.15;}</style></defs><path class="a" d="M30,98.367a1.773,1.773,0,0,1-1.773,1.773H1.773A1.773,1.773,0,0,1,0,98.367V81.224a1.773,1.773,0,0,1,1.773-1.773H28.227A1.773,1.773,0,0,1,30,81.224V98.367Z" transform="translate(0 -79.451)"/><path class="b" d="M35.526,193.859l-.726-3.485a.866.866,0,0,0-.937-.642h-3.33l-.03.159A6.85,6.85,0,0,1,35.526,193.859Z" transform="translate(-28.659 -183.319)"/><path class="c" d="M186.995,190.892h-2.152l-1.344,7.887h2.148Z" transform="translate(-172.79 -184.805)"/><path class="c" d="M70.036,198.855l3.384-7.874H71.143l-2.105,5.379-.225-.812a8.415,8.415,0,0,0-2.977-3.269l1.925,6.578Z" transform="translate(-61.858 -184.888)"/><path class="c" d="M247.494,194.1c.008-.9-.567-1.578-1.806-2.143-.753-.364-1.212-.607-1.206-.977,0-.327.389-.678,1.231-.678a3.968,3.968,0,0,1,1.609.3l.194.089.292-1.709a5.574,5.574,0,0,0-1.927-.329c-2.124,0-3.62,1.069-3.633,2.6-.014,1.134,1.069,1.765,1.884,2.143.837.385,1.117.632,1.112.977-.005.528-.667.769-1.285.769a4.51,4.51,0,0,1-2.025-.413l-.275-.126-.3,1.767a6.783,6.783,0,0,0,2.394.419C246.009,196.8,247.477,195.742,247.494,194.1Z" transform="translate(-227.33 -182.707)"/><path class="c" d="M343.095,197.724l2.753,0c.065.275.262,1.182.262,1.182H348.1l-1.741-7.882H344.7a1.07,1.07,0,0,0-1.126.653l-3.193,7.229h2.259S343.011,197.937,343.095,197.724Zm1.474-3.819c-.011.022.178-.456.286-.753l.146.68s.41,1.884.5,2.278h-1.784C343.891,195.656,344.569,193.9,344.569,193.9Z" transform="translate(-320.755 -184.932)"/><path class="c" d="M28.227,79.451H1.773A1.8,1.8,0,0,0,0,81.28v1.9H30v-1.9A1.8,1.8,0,0,0,28.227,79.451Z" transform="translate(0 -79.451)"/><path class="b" d="M28.227,374.6H1.773A1.8,1.8,0,0,1,0,372.769v-1.9H30v1.9A1.8,1.8,0,0,1,28.227,374.6Z" transform="translate(0 -353.908)"/><path class="d" d="M1.3,98.367V81.224a1.8,1.8,0,0,1,1.829-1.773h-1.3A1.8,1.8,0,0,0,0,81.224V98.367a1.8,1.8,0,0,0,1.829,1.773h1.3A1.8,1.8,0,0,1,1.3,98.367Z" transform="translate(0 -79.451)"/></svg>