<svg xmlns="http://www.w3.org/2000/svg" width="26.341" height="34.304" viewBox="0 0 26.341 34.304"><g transform="translate(-6.5)"><path d="M25.174,0H7.4C6.9,0,6.5.4,6.5,1.18V33.692a.923.923,0,0,0,.9.613H31.945a.923.923,0,0,0,.9-.613V7.95c0-.426-.057-.564-.157-.665L25.555.157A.541.541,0,0,0,25.174,0Z" transform="translate(0 0)" fill="#e9e9e0"/><path d="M37.5.151V7.409h7.258Z" transform="translate(-12.01 -0.059)" fill="#d9d7ca"/><path d="M18.7,23.09h0a.983.983,0,0,1-.592-.2,1.468,1.468,0,0,1-.683-1.373c.111-1,1.345-2.041,3.666-3.1a41.12,41.12,0,0,0,2.32-6.585C22.8,10.5,22.208,8.77,22.641,7.758a1.175,1.175,0,0,1,.695-.744,3.007,3.007,0,0,1,.622-.105c.309,0,.58.4.772.643s.591.719-.228,4.167a19.574,19.574,0,0,0,3.117,4.632,11.918,11.918,0,0,1,2.057-.219c.959,0,1.541.224,1.778.684a1.24,1.24,0,0,1-.239,1.323,1.628,1.628,0,0,1-1.36.73,4.072,4.072,0,0,1-2.58-1.4A29.352,29.352,0,0,0,21.867,19.2a17.381,17.381,0,0,1-1.46,2.6C19.78,22.679,19.238,23.09,18.7,23.09Zm1.631-3.14c-1.309.736-1.843,1.34-1.881,1.681-.006.056-.023.2.264.424C18.807,22.026,19.34,21.783,20.333,19.95Zm8.354-2.721c.5.384.621.578.948.578a.923.923,0,0,0,.741-.27.97.97,0,0,0,.141-.254c-.075-.04-.175-.121-.72-.121A8.957,8.957,0,0,0,28.686,17.229ZM24.11,13.2a43.672,43.672,0,0,1-1.638,4.634,30.608,30.608,0,0,1,3.979-1.237A20.969,20.969,0,0,1,24.11,13.2Zm-.372-5.184a1.469,1.469,0,0,0,.059,1.97C24.379,8.688,23.765,8,23.739,8.013Z" transform="translate(-4.23 -2.676)" fill="#cc4b4c"/><path d="M31.945,49.414H7.4a.9.9,0,0,1-.9-.9V39H32.841v9.518A.9.9,0,0,1,31.945,49.414Z" transform="translate(0 -15.109)" fill="#cc4b4c"/><g transform="translate(12.163 26.294)"><path d="M16.749,49.1H15.744V42.924h1.775a2.492,2.492,0,0,1,.779.126,2.117,2.117,0,0,1,.691.377,1.967,1.967,0,0,1,.494.607,1.682,1.682,0,0,1,.189.8,2.188,2.188,0,0,1-.159.85,1.777,1.777,0,0,1-.444.641,2,2,0,0,1-.687.4,2.643,2.643,0,0,1-.888.142h-.746V49.1Zm0-5.41v2.445h.921a1.1,1.1,0,0,0,.364-.063.918.918,0,0,0,.331-.205,1,1,0,0,0,.243-.4,1.883,1.883,0,0,0,.092-.632,1.71,1.71,0,0,0-.042-.347,1,1,0,0,0-.172-.377,1.015,1.015,0,0,0-.364-.3,1.354,1.354,0,0,0-.62-.121h-.753Z" transform="translate(-15.744 -42.924)" fill="#fff"/><path d="M29.067,45.839a4.535,4.535,0,0,1-.164,1.3,3.237,3.237,0,0,1-.415.9,2.13,2.13,0,0,1-.565.574,2.836,2.836,0,0,1-.607.314,2.509,2.509,0,0,1-.536.134,3.571,3.571,0,0,1-.36.028H24.084V42.924h1.859a3.532,3.532,0,0,1,1.369.247,2.843,2.843,0,0,1,.98.657,2.7,2.7,0,0,1,.582.934A3.092,3.092,0,0,1,29.067,45.839Zm-2.981,2.521a1.664,1.664,0,0,0,1.474-.653,3.315,3.315,0,0,0,.452-1.893,3.206,3.206,0,0,0-.092-.762,1.63,1.63,0,0,0-.356-.682,1.878,1.878,0,0,0-.716-.494,3.083,3.083,0,0,0-1.172-.189h-.586v4.673Z" transform="translate(-18.975 -42.924)" fill="#fff"/><path d="M35.62,43.686v1.943H38.2v.687H35.62V49.1H34.6V42.924h3.86v.762Z" transform="translate(-23.048 -42.924)" fill="#fff"/></g></g></svg>