<svg xmlns="http://www.w3.org/2000/svg" width="120" height="120" viewBox="0 0 120 120"><path d="M60,0A59.968,59.968,0,0,0,13.748,98.176c.022.03.024.068.048.1a59.984,59.984,0,0,0,22.656,16.906c.1.042.2.088.3.13.7.3,1.412.57,2.124.838.28.106.56.214.844.316q.921.33,1.854.628c.4.128.8.254,1.2.374q.825.246,1.658.472c.488.132.98.254,1.472.372s1,.24,1.5.346c.56.12,1.126.226,1.694.33.456.084.91.172,1.37.246.63.1,1.264.182,1.9.264.41.052.818.112,1.23.156.72.076,1.446.13,2.174.18.338.024.674.06,1.014.078Q58.375,120,60,120c1.082,0,2.156-.032,3.222-.088.34-.018.676-.054,1.014-.078.728-.052,1.454-.1,2.174-.18.412-.044.82-.1,1.23-.156.636-.082,1.27-.162,1.9-.264.458-.074.914-.162,1.37-.246.566-.1,1.132-.21,1.694-.33.5-.108,1-.226,1.5-.346s.984-.242,1.472-.372c.556-.148,1.108-.308,1.658-.472.4-.12.8-.246,1.2-.374q.933-.3,1.854-.628c.282-.1.562-.21.844-.316.714-.268,1.422-.544,2.124-.838.1-.042.2-.088.3-.13a60,60,0,0,0,22.656-16.906c.024-.028.026-.068.048-.1A59.974,59.974,0,0,0,60,0ZM84.314,110.44l-.088.044c-.714.344-1.44.668-2.172.984l-.5.212q-.96.4-1.94.766c-.272.1-.544.2-.818.3-.578.206-1.158.4-1.744.592-.364.116-.73.226-1.1.334-.52.156-1.042.306-1.57.446-.444.118-.892.226-1.34.332-.47.112-.938.226-1.412.326-.518.11-1.04.2-1.56.3-.422.078-.842.16-1.268.228-.586.092-1.178.166-1.768.24-.374.048-.746.1-1.124.144-.674.072-1.354.118-2.032.166-.3.02-.6.054-.908.07Q61.493,116,60,116t-2.976-.08c-.3-.016-.6-.048-.908-.07-.68-.046-1.358-.094-2.032-.166-.378-.04-.75-.1-1.124-.144-.59-.074-1.182-.148-1.768-.24-.426-.068-.846-.15-1.268-.228-.522-.094-1.044-.19-1.56-.3-.474-.1-.944-.214-1.412-.326-.448-.108-.9-.214-1.34-.332-.526-.14-1.05-.292-1.57-.446-.366-.108-.732-.218-1.1-.334q-.879-.282-1.744-.592c-.274-.1-.546-.2-.818-.3q-.978-.366-1.94-.766c-.166-.068-.328-.14-.494-.21-.732-.314-1.458-.64-2.174-.984l-.088-.044A56.271,56.271,0,0,1,17.544,96.454a44.143,44.143,0,0,1,28.89-30.278c.278.17.568.322.854.482.168.094.334.194.5.284.6.316,1.2.612,1.818.878.474.208.964.384,1.452.564.1.034.192.072.288.106a25.525,25.525,0,0,0,17.3,0c.1-.034.192-.072.288-.106.488-.18.978-.356,1.452-.564.618-.266,1.222-.562,1.818-.878.17-.092.336-.19.5-.284.286-.16.578-.312.858-.484a44.155,44.155,0,0,1,28.89,30.278A56.327,56.327,0,0,1,84.314,110.44ZM38,44A22,22,0,1,1,71.968,62.434a21.185,21.185,0,0,1-2.45,1.37c-.1.048-.2.1-.3.144a22.5,22.5,0,0,1-18.44,0c-.1-.046-.2-.1-.3-.144a21.022,21.022,0,0,1-2.45-1.37A21.986,21.986,0,0,1,38,44Zm67.458,48.646A48.19,48.19,0,0,0,77.364,63.3a26,26,0,1,0-34.726,0A48.2,48.2,0,0,0,14.544,92.646,55.985,55.985,0,1,1,116,60,55.683,55.683,0,0,1,105.458,92.646Z" fill="#624096"/></svg>